<?xml version="1.0" encoding="UTF-8"?>
<!DOCTYPE svg PUBLIC "-//W3C//DTD SVG 1.1//EN" "http://www.w3.org/Graphics/SVG/1.1/DTD/svg11.dtd">
<!-- Creator: CorelDRAW X8 -->
<svg xmlns="http://www.w3.org/2000/svg" xml:space="preserve" width="720px" height="333px" version="1.1" shape-rendering="geometricPrecision" text-rendering="geometricPrecision" image-rendering="optimizeQuality" fill-rule="evenodd" clip-rule="evenodd"
viewBox="0 0 1855354 857688"
 xmlns:xlink="http://www.w3.org/1999/xlink">
 <g id="Plan_x0020_1">
  <metadata id="CorelCorpID_0Corel-Layer"/>
  <g id="_1758599144064">
   <path fill="#1F497C" fill-rule="nonzero" d="M849150 294560l0 -162430c0,-5150 2656,-7724 7966,-7724 4667,0 8931,3701 12792,11102l41513 80130 41514 -80130c3862,-7401 8125,-11102 12791,-11102 5309,0 7965,2574 7965,7724l0 162430c0,1932 -766,3461 -2293,4588 -1529,1126 -3419,1689 -5672,1689 -2092,0 -3942,-563 -5551,-1689 -1609,-1127 -2413,-2656 -2413,-4588l0 -135640 -40066 75785c-1770,3380 -3942,5069 -6516,5069 -2414,0 -4506,-1689 -6276,-5069l-39823 -76509 0 136364c0,1932 -806,3461 -2415,4588 -1607,1126 -3457,1689 -5550,1689 -2253,0 -4142,-563 -5673,-1689 -1527,-1127 -2293,-2656 -2293,-4588zm147468 -163395c0,-1932 927,-3542 2777,-4828 1851,-1287 3821,-1931 5912,-1931 2576,0 4666,1609 6277,4827l44408 88094 44652 -88094c1609,-3218 3701,-4827 6275,-4827 2091,0 4062,644 5912,1931 1850,1286 2777,2896 2777,4828 0,1446 -323,2895 -967,4343l-50201 95818c-323,967 -482,1609 -482,1932l0 61302c0,1932 -764,3461 -2295,4588 -1527,1126 -3418,1689 -5671,1689 -2091,0 -3941,-563 -5550,-1689 -1609,-1127 -2415,-2656 -2415,-4588l0 -61302c0,-806 -80,-1450 -241,-1932l-49960 -95818c-805,-1448 -1208,-2897 -1208,-4343zm-864780 589573l0 -164363c0,-1932 724,-3418 2173,-4465 1448,-1046 3138,-1569 5068,-1569l39584 0c7401,0 13835,563 19308,1689 5469,1127 10578,3138 15325,6035 4745,2895 8366,7120 10860,12671 2495,5551 3742,12430 3742,20635 0,9977 -1851,18424 -5552,25343 -3701,6919 -8689,11746 -14964,14481 8045,3218 14202,8045 18465,14481 4263,6437 6394,15447 6394,27033l0 4343c0,17378 -4343,30009 -13032,37892 -8689,7886 -20273,11828 -34754,11828l-45376 0c-2253,0 -4021,-604 -5309,-1811 -1288,-1206 -1932,-2614 -1932,-4223zm15689 -8689l34996 0c22526,0 33791,-11905 33791,-35721l0 -4103c0,-22848 -11265,-34273 -33791,-34273l-34996 0 0 74097zm0 -87854l31617 0c11424,0 19750,-2373 24980,-7120 5230,-4746 7844,-12751 7844,-24015 0,-10458 -2895,-17740 -8689,-21841 -5792,-4104 -14159,-6155 -25101,-6155l-30651 0 0 59131zm113437 52376l0 -120438c0,-3860 2656,-5792 7965,-5792 5310,0 7964,1932 7964,5792l0 120438c0,12226 3018,21440 9050,27634 6035,6194 14605,9293 25705,9293 11103,0 19671,-3099 25706,-9293 6033,-6194 9050,-15408 9050,-27634l0 -120438c0,-3860 2656,-5792 7965,-5792 5310,0 7965,1932 7965,5792l0 120438c0,17859 -4627,30932 -13878,39219 -9252,8286 -21522,12431 -36808,12431 -15285,0 -27555,-4145 -36805,-12431 -9253,-8287 -13879,-21360 -13879,-39219zm137331 43924l0 -164362c0,-3860 2656,-5792 7966,-5792 5309,0 7965,1932 7965,5792l0 164362c0,1932 -805,3461 -2414,4588 -1608,1126 -3458,1689 -5551,1689 -2253,0 -4142,-563 -5673,-1689 -1527,-1127 -2293,-2656 -2293,-4588zm52617 0l0 -164362c0,-3860 2654,-5792 7966,-5792 5309,0 7965,1932 7965,5792l0 155916 68785 0c3541,0 5310,2414 5310,7242 0,4988 -1769,7481 -5310,7481l-77474 0c-1930,0 -3621,-563 -5069,-1689 -1449,-1127 -2173,-2656 -2173,-4588zm111747 243l0 -164605c0,-1609 685,-2976 2052,-4103 1367,-1126 3098,-1689 5189,-1689l42720 0c15285,0 27515,4143 36685,12430 9173,8286 13759,21280 13759,38978l0 73372c0,17861 -4586,30935 -13759,39221 -9170,8286 -21400,12430 -36685,12430l-42720 0c-2091,0 -3822,-604 -5189,-1811 -1367,-1206 -2052,-2614 -2052,-4223zm15930 -8689l34031 0c10942,0 19430,-3096 25462,-9293 6035,-6193 9053,-15405 9053,-27635l0 -73372c0,-12229 -3018,-21399 -9053,-27514 -6032,-6115 -14520,-9171 -25462,-9171l-34031 0 0 146985zm119230 8446l0 -164362c0,-3860 2654,-5792 7965,-5792 5308,0 7965,1932 7965,5792l0 164362c0,1932 -807,3461 -2414,4588 -1609,1126 -3459,1689 -5551,1689 -2253,0 -4143,-563 -5672,-1689 -1529,-1127 -2293,-2656 -2293,-4588zm52615 0l0 -164120c0,-4022 2656,-6034 7965,-6034 4506,0 8689,3701 12551,11102l65165 128401 0 -133711c0,-3860 2657,-5792 7965,-5792 5312,0 7966,1932 7966,5792l0 164362c0,1932 -804,3461 -2415,4588 -1609,1126 -3459,1689 -5551,1689 -4021,0 -7562,-3057 -10619,-9172l-67096 -130572 0 133467c0,1932 -806,3461 -2415,4588 -1607,1126 -3458,1689 -5551,1689 -2253,0 -4141,-563 -5672,-1689 -1528,-1127 -2293,-2656 -2293,-4588zm136366 -43924l0 -74822c0,-17698 4546,-30692 13636,-38978 9092,-8287 21200,-12430 36326,-12430 15284,0 27514,3902 36684,11706 9174,7804 13759,17819 13759,30047 0,5473 -2655,8207 -7965,8207 -5148,0 -7804,-2010 -7964,-6034 -2252,-19469 -13677,-29203 -34273,-29203 -22848,0 -34272,12228 -34272,36685l0 74822c0,12388 2975,21641 8928,27754 5956,6115 14402,9173 25344,9173 10942,0 19390,-3058 25343,-9173 5954,-6113 8930,-15366 8930,-27754l0 -28722 -32343 0c-1769,0 -3177,-683 -4223,-2053 -1045,-1366 -1569,-3016 -1569,-4947 0,-1770 524,-3338 1569,-4707 1046,-1366 2454,-2050 4223,-2050l42479 0c3862,0 5793,2092 5793,6273l0 36206c0,17859 -4545,30932 -13636,39219 -9091,8286 -21281,12431 -36566,12431 -15285,0 -27475,-4145 -36567,-12431 -9090,-8287 -13636,-21360 -13636,-39219zm122852 26065c0,-1930 764,-3900 2291,-5912 1531,-2011 3178,-3018 4950,-3018 1287,0 2896,1047 4827,3138l6758 7000c2412,2573 6234,4866 11463,6877 5231,2012 11304,3017 18223,3017 11424,0 20273,-2855 26548,-8568 6276,-5712 9415,-13958 9415,-24739 0,-7241 -1490,-13395 -4466,-18463 -2977,-5068 -6799,-8970 -11465,-11706 -4504,-2897 -9654,-5471 -15446,-7724l-17378 -6757c-5793,-2251 -10982,-4947 -15567,-8085 -4587,-3138 -8367,-7563 -11344,-13275 -2977,-5712 -4465,-12511 -4465,-20395 0,-8406 1568,-15647 4706,-21721 3138,-6075 7361,-10621 12672,-13717 5309,-3057 10740,-5312 16290,-6678 5551,-1367 11385,-2051 17500,-2051 9814,0 19026,1407 27633,4223 8609,2815 12914,6314 12914,10499 0,1930 -684,3901 -2052,5912 -1368,2012 -3016,3019 -4947,3019 -966,0 -2817,-766 -5551,-2253 -2737,-1490 -6557,-2977 -11466,-4466 -4907,-1488 -10499,-2212 -16772,-2212 -10139,0 -18505,2173 -25102,6516 -6596,4345 -9896,11505 -9896,21482 0,6918 1970,12710 5912,17376 3944,4667 8892,8047 14846,10137 5952,2091 12389,4587 19308,7482 6917,2897 13355,5994 19308,9294 5952,3297 10901,8527 14843,15687 3943,7160 5913,15969 5913,26428 0,16492 -4585,28843 -13757,37088 -9172,8246 -21561,12390 -37169,12390 -13999,0 -25744,-2977 -35239,-8971 -9493,-5992 -14238,-11584 -14238,-16854z"/>
   <path fill="#FF4B04" fill-rule="nonzero" d="M421710 507770l0 -164603c0,-1611 684,-2977 2050,-4104 1368,-1126 3098,-1688 5192,-1688l42718 0c15285,0 27515,4141 36686,12428 9172,8288 13758,21280 13758,38979l0 73371c0,17861 -4586,30934 -13758,39221 -9171,8288 -21401,12431 -36686,12431l-42718 0c-2094,0 -3824,-604 -5192,-1812 -1366,-1205 -2050,-2612 -2050,-4223zm15929 -8689l34031 0c10942,0 19430,-3097 25463,-9292 6034,-6194 9052,-15406 9052,-27636l0 -73371c0,-12228 -3018,-21400 -9052,-27515 -6033,-6115 -14521,-9172 -25463,-9172l-34031 0 0 146986zm119229 8448l0 -164362c0,-3862 2654,-5792 7966,-5792 5309,0 7965,1930 7965,5792l0 164362c0,1930 -805,3459 -2414,4587 -1609,1127 -3460,1689 -5551,1689 -2253,0 -4144,-562 -5673,-1689 -1527,-1128 -2293,-2657 -2293,-4587zm50686 -43927l0 -74820c0,-17699 4545,-30691 13636,-38979 9091,-8287 21200,-12428 36323,-12428 15287,0 27517,3900 36687,11704 9173,7804 13757,17820 13757,30049 0,5471 -2654,8206 -7965,8206 -5147,0 -7804,-2011 -7964,-6035 -2253,-19469 -13676,-29204 -34272,-29204 -22847,0 -34272,12230 -34272,36687l0 74820c0,12390 2975,21643 8929,27757 5953,6114 14401,9171 25343,9171 10942,0 19388,-3057 25342,-9171 5953,-6114 8930,-15367 8930,-27757l0 -28721 -32342 0c-1769,0 -3176,-684 -4223,-2051 -1046,-1368 -1569,-3017 -1569,-4949 0,-1769 523,-3338 1569,-4706 1047,-1367 2454,-2051 4223,-2051l42479 0c3862,0 5792,2091 5792,6275l0 36203c0,17859 -4546,30933 -13636,39221 -9092,8286 -21280,12430 -36565,12430 -15286,0 -27475,-4144 -36566,-12430 -9091,-8288 -13636,-21362 -13636,-39221zm132504 43927l0 -164362c0,-3862 2655,-5792 7965,-5792 5310,0 7965,1930 7965,5792l0 164362c0,1930 -805,3459 -2414,4587 -1608,1127 -3458,1689 -5551,1689 -2253,0 -4143,-562 -5672,-1689 -1528,-1128 -2293,-2657 -2293,-4587zm37894 -162793c0,-1892 523,-3622 1569,-5110 1045,-1489 2534,-2251 4465,-2251l96784 0c1930,0 3419,723 4464,2131 1047,1448 1569,3097 1569,4987 0,2052 -522,3862 -1569,5351 -1045,1488 -2534,2251 -4464,2251l-40306 0 0 155434c0,1930 -806,3459 -2414,4587 -1609,1127 -3459,1689 -5551,1689 -2254,0 -4143,-562 -5672,-1689 -1529,-1128 -2293,-2657 -2293,-4587l0 -155434 -40548 0c-1769,0 -3219,-723 -4343,-2131 -1127,-1448 -1691,-3178 -1691,-5228zm104024 162310c0,-804 82,-1368 243,-1689l50441 -163881c1128,-3700 4225,-5551 9373,-5551 5110,0 8286,1851 9574,5591l50324 164242c0,162 40,403 120,684 80,323 120,564 120,686 0,1850 -1045,3419 -3137,4705 -2091,1328 -4264,1972 -6517,1972 -3057,0 -5067,-1369 -6032,-4103l-11104 -37169 -66654 0 -11183 37209c-644,2694 -2775,4063 -6316,4063 -2293,0 -4385,-644 -6315,-1932 -1972,-1288 -2937,-2895 -2937,-4827zm30895 -48271l58407 0 -29124 -97468 -29283 97468zm112711 48754l0 -164362c0,-3862 2656,-5792 7966,-5792 5309,0 7965,1930 7965,5792l0 155914 68785 0c3541,0 5311,2414 5311,7241 0,4989 -1770,7483 -5311,7483l-77474 0c-1930,0 -3621,-562 -5069,-1689 -1449,-1128 -2173,-2657 -2173,-4587z"/>
   <g>
    <g>
     <polygon fill="#FF4B04" points="1370443,426574 1284365,277246 1284342,277246 1198264,426574 1284340,575902 1284365,575902 "/>
     <polygon fill="#FF6F36" points="1370443,426574 1284367,277246 1456731,277246 1542623,426569 1542621,426574 "/>
     <polygon fill="#DB3E00" points="1542621,426574 1370257,426574 1284359,575902 1456547,575902 "/>
    </g>
    <g>
     <path fill="#1F497C" d="M1204312 124410l80047 138866 176387 -5c2412,5 4756,1260 6043,3501l87893 152805 160123 0 -169788 -295167 -340705 0z"/>
     <path fill="#1F497C" d="M1544651 728743l170139 -295166 -160111 0 -88078 152799c-1288,2242 -3632,3496 -6045,3497l0 29 -176213 0 -80031 138841 340339 0z"/>
    </g>
   </g>
  </g>
  <rect fill="none" width="1855354" height="857688"/>
 </g>
</svg>
